<?xml version="1.0" encoding="UTF-8"?>
<!DOCTYPE svg PUBLIC "-//W3C//DTD SVG 1.0//EN" "http://www.w3.org/TR/2001/REC-SVG-20010904/DTD/svg10.dtd">
<!-- Path-based vector conversion of the supplied Clarté Club logo -->
<svg xmlns="http://www.w3.org/2000/svg" xml:space="preserve"
 width="118.499mm" height="50.420mm" version="1.0"
 style="shape-rendering:geometricPrecision; text-rendering:geometricPrecision; image-rendering:optimizeQuality; fill-rule:evenodd; clip-rule:evenodd"
 viewBox="0 0 926 394"
 data-name="Layer 1">
 <defs>
  <style type="text/css"><![CDATA[
   .fil0 {fill:#292D30;fill-rule:evenodd}
  ]]></style>
 </defs>
 <g id="Layer_1">
  <path class="fil0" d="
   M 477.29 112.00 L 476.00 112.68 L 455.00 112.77 L 453.00 112.51 L 452.52 112.00 L 452.50 109.00 L 453.63 103.00 L 457.51 89.00 L 460.61 81.00 L 465.46 71.00 L 469.69 64.00 L 477.69 53.00 L 492.00 38.56 L 501.00 31.74 L 508.00 27.43 L 519.00 21.58 L 527.00 18.54 L 536.00 15.67 L 545.00 13.61 L 552.00 12.65 L 564.00 11.84 L 581.00 12.75 L 587.00 13.59 L 599.00 16.50 L 612.00 21.47 L 618.00 24.64 L 629.00 31.61 L 634.00 35.47 L 642.16 43.00 L 650.91 53.00 L 650.85 54.00 L 650.04 55.00 L 633.00 70.52 L 632.00 70.41 L 631.00 69.47 L 625.00 62.36 L 619.70 57.00 L 610.90 50.00 L 600.77 44.00 L 587.76 39.00 L 579.00 36.95 L 571.00 35.97 L 559.00 35.75 L 549.00 36.95 L 537.10 40.00 L 527.27 44.00 L 518.10 49.00 L 508.50 56.00 L 500.00 64.20 L 493.00 73.02 L 485.92 85.00 L 480.00 100.48 L 477.29 112.00 Z
   M 378.85 241.00 L 368.00 241.46 L 355.00 240.46 L 344.00 238.62 L 333.00 235.42 L 325.00 232.47 L 315.00 227.43 L 307.00 222.52 L 296.00 214.29 L 288.49 207.00 L 281.59 199.00 L 274.51 189.00 L 269.46 180.00 L 264.42 169.00 L 261.49 160.00 L 258.53 147.00 L 257.51 138.00 L 257.16 126.00 L 257.55 117.00 L 258.51 108.00 L 260.59 98.00 L 263.83 88.00 L 268.71 76.00 L 275.65 64.00 L 280.49 57.00 L 288.34 48.00 L 295.00 41.47 L 305.00 33.57 L 316.00 26.69 L 329.00 20.50 L 341.00 16.49 L 353.00 13.72 L 363.00 12.60 L 380.00 12.45 L 390.00 13.59 L 403.00 16.54 L 414.00 20.43 L 428.00 27.43 L 436.00 32.63 L 442.00 37.38 L 449.00 43.89 L 455.58 51.00 L 456.70 53.00 L 456.00 54.34 L 442.31 68.00 L 439.00 70.54 L 438.00 69.92 L 430.00 60.95 L 420.97 53.00 L 412.00 46.93 L 399.52 41.00 L 388.00 37.91 L 374.00 36.18 L 368.00 36.13 L 360.00 36.77 L 352.36 38.00 L 344.67 40.00 L 334.27 44.00 L 324.84 49.00 L 315.00 55.97 L 307.00 63.45 L 300.00 71.80 L 294.00 81.12 L 289.00 91.78 L 285.00 104.18 L 282.79 118.00 L 282.50 129.00 L 282.93 137.00 L 283.95 144.00 L 286.00 152.68 L 289.00 161.32 L 291.92 168.00 L 301.00 182.55 L 309.16 192.00 L 316.00 198.00 L 324.03 204.00 L 335.14 210.00 L 342.03 213.00 L 348.57 215.00 L 358.00 217.03 L 367.00 217.79 L 375.00 217.88 L 383.00 217.18 L 390.00 216.00 L 397.00 214.10 L 404.64 211.00 L 410.56 208.00 L 418.00 203.14 L 426.00 196.55 L 433.00 189.31 L 438.72 182.00 L 440.00 181.49 L 457.31 199.00 L 457.23 200.00 L 454.00 203.96 L 444.00 214.05 L 435.00 221.40 L 425.00 227.59 L 410.00 234.55 L 401.00 237.47 L 387.00 240.37 L 378.85 241.00 Z
   M 568.89 241.00 L 560.00 241.13 L 548.00 240.35 L 538.00 238.53 L 527.00 235.39 L 519.00 232.50 L 509.00 227.56 L 499.00 221.49 L 490.00 214.75 L 482.96 208.00 L 475.83 200.00 L 469.55 191.00 L 463.61 181.00 L 457.61 167.00 L 454.44 157.00 L 452.51 147.00 L 451.00 135.18 L 450.00 134.87 L 389.00 134.88 L 387.65 134.00 L 387.42 133.00 L 387.42 125.00 L 388.00 123.11 L 389.00 122.60 L 470.00 122.48 L 499.00 122.52 L 503.00 122.59 L 503.93 123.00 L 504.54 124.00 L 504.66 131.00 L 504.66 133.00 L 504.00 134.48 L 503.00 134.87 L 478.00 134.89 L 477.00 135.57 L 477.90 145.00 L 478.99 150.00 L 484.00 165.15 L 487.94 173.00 L 494.00 182.15 L 501.00 190.60 L 506.64 196.00 L 516.00 203.10 L 524.15 208.00 L 531.00 211.22 L 542.70 215.00 L 555.00 217.22 L 572.00 217.28 L 580.70 216.00 L 594.00 212.01 L 604.24 207.00 L 614.47 200.00 L 623.00 192.15 L 632.30 181.00 L 634.00 180.02 L 636.00 181.35 L 651.57 196.00 L 652.00 197.00 L 651.75 198.00 L 649.40 201.00 L 637.00 213.74 L 627.00 221.64 L 617.00 227.67 L 602.00 234.45 L 592.00 237.60 L 577.00 240.41 L 568.89 241.00 Z
   M 484.43 309.00 L 483.00 309.86 L 482.00 309.89 L 479.00 309.73 L 478.33 309.00 L 478.51 308.00 L 485.00 297.86 L 487.00 297.10 L 492.00 297.44 L 492.41 298.00 L 492.13 299.00 L 484.43 309.00 Z
   M 48.18 381.00 L 44.00 381.19 L 37.00 380.25 L 29.00 377.40 L 24.00 374.31 L 19.56 370.00 L 15.37 364.00 L 12.46 357.00 L 11.31 351.00 L 11.47 343.00 L 12.38 338.00 L 14.74 332.00 L 18.50 326.00 L 23.00 321.37 L 29.00 317.35 L 36.00 314.73 L 43.00 313.49 L 50.00 313.65 L 58.00 315.84 L 65.00 319.74 L 68.30 323.00 L 68.29 324.00 L 65.00 327.33 L 63.00 328.01 L 56.64 323.00 L 54.00 321.72 L 50.00 320.60 L 45.00 320.07 L 41.00 320.26 L 37.49 321.00 L 32.85 323.00 L 27.00 327.26 L 24.00 330.82 L 22.00 334.36 L 19.79 341.00 L 19.29 346.00 L 19.47 351.00 L 20.96 358.00 L 22.96 362.00 L 25.00 364.86 L 29.07 369.00 L 32.00 371.05 L 36.08 373.00 L 39.41 374.00 L 43.00 374.40 L 51.01 374.00 L 58.00 371.22 L 61.00 369.21 L 64.00 366.42 L 65.00 366.14 L 66.00 366.66 L 69.12 370.00 L 68.94 371.00 L 66.00 373.91 L 61.00 377.41 L 53.00 380.28 L 48.18 381.00 Z
   M 635.21 381.00 L 629.00 381.03 L 621.00 379.45 L 616.00 377.40 L 610.00 373.37 L 605.86 369.00 L 601.50 362.00 L 599.46 356.00 L 598.79 351.00 L 598.73 345.00 L 599.51 339.00 L 602.69 331.00 L 606.58 325.00 L 611.00 320.60 L 617.00 316.77 L 623.00 314.53 L 629.00 313.63 L 638.00 313.74 L 645.00 315.66 L 649.00 317.72 L 652.00 319.94 L 654.93 323.00 L 655.04 324.00 L 652.00 327.14 L 650.00 328.11 L 643.00 322.70 L 638.89 321.00 L 636.00 320.43 L 631.00 320.11 L 627.00 320.57 L 622.20 322.00 L 618.26 324.00 L 613.00 328.59 L 609.00 335.00 L 606.74 343.00 L 606.69 352.00 L 609.00 359.74 L 612.00 364.75 L 616.05 369.00 L 619.00 371.07 L 623.05 373.00 L 626.13 374.00 L 630.00 374.47 L 638.22 374.00 L 643.58 372.00 L 646.55 370.00 L 651.00 366.02 L 652.00 365.73 L 655.88 369.00 L 656.42 370.00 L 656.03 371.00 L 651.00 375.49 L 643.00 379.45 L 640.00 380.40 L 635.21 381.00 Z
   M 149.27 380.00 L 113.00 380.17 L 111.46 379.00 L 111.43 318.00 L 111.55 316.00 L 112.35 315.00 L 118.00 314.72 L 118.99 316.00 L 119.00 366.14 L 119.09 372.00 L 119.47 373.00 L 126.00 373.51 L 149.00 373.51 L 150.00 373.80 L 150.74 375.00 L 150.66 379.00 L 149.27 380.00 Z
   M 246.25 380.00 L 241.00 380.15 L 240.00 379.82 L 238.33 377.00 L 233.14 364.00 L 232.00 363.10 L 231.00 363.03 L 202.00 363.49 L 195.00 379.22 L 193.00 380.10 L 189.00 380.11 L 188.00 379.79 L 187.45 379.00 L 211.71 320.00 L 213.45 316.00 L 215.00 314.76 L 220.00 314.63 L 221.65 316.00 L 247.21 378.00 L 247.44 379.00 L 246.25 380.00 Z
   M 330.02 380.00 L 325.00 379.95 L 323.62 379.00 L 308.00 353.26 L 307.00 351.84 L 305.00 351.41 L 296.00 351.47 L 295.12 352.00 L 294.81 379.00 L 294.00 379.88 L 289.00 380.13 L 288.00 379.82 L 287.40 379.00 L 287.25 317.00 L 288.00 314.87 L 308.00 314.66 L 317.00 315.57 L 321.00 316.83 L 324.00 318.48 L 328.68 323.00 L 330.45 327.00 L 331.16 332.00 L 330.87 337.00 L 329.61 341.00 L 327.52 344.00 L 325.00 346.35 L 322.00 348.30 L 316.89 350.00 L 315.31 351.00 L 332.23 378.00 L 332.55 379.00 L 332.00 379.72 L 330.02 380.00 Z
   M 397.38 380.00 L 393.00 380.11 L 391.47 379.00 L 391.33 378.00 L 391.28 322.00 L 390.00 321.35 L 371.00 321.15 L 369.97 320.00 L 369.87 317.00 L 369.93 316.00 L 371.00 314.73 L 418.00 314.57 L 419.65 315.00 L 420.34 316.00 L 420.26 320.00 L 419.00 321.17 L 401.00 321.38 L 399.28 322.00 L 399.04 378.00 L 398.89 379.00 L 397.38 380.00 Z
   M 501.18 380.00 L 463.00 380.12 L 461.46 379.00 L 461.34 317.00 L 462.00 315.00 L 463.00 314.65 L 490.00 314.54 L 502.00 314.62 L 503.00 315.08 L 503.54 316.00 L 503.55 320.00 L 502.00 321.30 L 470.00 321.34 L 469.00 321.81 L 468.86 323.00 L 468.80 342.00 L 469.15 343.00 L 499.00 343.31 L 500.01 345.00 L 500.06 348.00 L 499.37 350.00 L 498.00 350.42 L 470.00 350.41 L 469.00 350.93 L 468.99 373.00 L 472.00 373.49 L 503.00 373.64 L 503.91 375.00 L 503.76 379.00 L 503.00 379.85 L 501.18 380.00 Z
   M 734.82 380.00 L 700.00 380.24 L 698.00 379.74 L 697.49 379.00 L 697.46 317.00 L 697.56 316.00 L 698.44 315.00 L 704.00 314.70 L 705.07 316.00 L 705.14 372.00 L 705.47 373.00 L 707.00 373.43 L 735.00 373.39 L 736.00 373.88 L 736.55 375.00 L 736.53 378.00 L 736.00 379.47 L 734.82 380.00 Z
   M 801.00 381.00 L 792.00 380.30 L 785.00 377.38 L 780.14 373.00 L 776.36 367.00 L 774.83 361.00 L 774.51 350.00 L 774.61 317.00 L 775.00 315.46 L 776.00 314.69 L 781.00 314.72 L 782.16 316.00 L 782.22 356.00 L 782.81 361.00 L 783.67 364.00 L 785.80 368.00 L 789.00 371.20 L 793.00 373.24 L 798.00 374.17 L 802.35 374.00 L 808.00 372.01 L 812.00 368.78 L 815.00 364.00 L 816.00 360.89 L 816.44 357.00 L 816.50 316.00 L 818.00 314.65 L 822.00 314.57 L 823.65 315.00 L 824.32 316.00 L 824.30 355.00 L 823.54 362.00 L 822.44 366.00 L 819.29 372.00 L 816.00 375.39 L 813.00 377.42 L 809.00 379.31 L 806.00 380.33 L 801.00 381.00 Z
   M 893.36 380.00 L 870.00 380.19 L 869.00 380.02 L 868.17 379.00 L 868.16 317.00 L 868.23 316.00 L 869.00 314.86 L 891.00 314.77 L 898.00 315.64 L 901.00 316.67 L 905.00 319.16 L 907.82 322.00 L 909.48 325.00 L 910.49 331.00 L 909.60 337.00 L 907.22 341.00 L 905.00 343.13 L 901.96 345.00 L 901.80 346.00 L 907.00 348.56 L 909.54 351.00 L 911.45 354.00 L 912.57 357.00 L 912.92 360.00 L 912.39 367.00 L 909.84 372.00 L 908.00 374.14 L 905.00 376.48 L 899.00 379.19 L 893.36 380.00 Z
   M 315.00 344.03 L 320.00 341.27 L 322.00 338.77 L 323.00 336.51 L 323.35 331.00 L 322.35 328.00 L 321.00 325.88 L 317.51 323.00 L 313.00 321.49 L 297.00 321.24 L 296.00 321.30 L 295.00 322.00 L 295.01 344.00 L 296.00 344.85 L 298.00 344.95 L 310.00 344.80 L 315.00 344.03 Z
   M 892.00 343.06 L 896.00 342.11 L 898.00 341.13 L 900.35 339.00 L 902.00 336.45 L 902.98 332.00 L 902.17 328.00 L 901.00 325.84 L 897.82 323.00 L 893.00 321.42 L 885.00 321.20 L 876.00 321.70 L 875.62 334.00 L 876.00 342.79 L 892.00 343.06 Z
   M 229.00 356.53 L 229.79 356.00 L 228.05 351.00 L 218.03 326.00 L 217.00 325.76 L 204.89 356.00 L 207.00 356.55 L 229.00 356.53 Z
   M 896.00 373.11 L 901.12 371.00 L 903.17 369.00 L 905.00 365.58 L 905.53 362.00 L 905.24 358.00 L 903.00 353.73 L 899.28 351.00 L 895.00 349.68 L 889.00 349.41 L 876.00 349.79 L 875.61 365.00 L 876.00 373.19 L 885.00 373.66 L 896.00 373.11 Z"/>
 </g>
</svg>
