<?xml version="1.0" encoding="UTF-8"?>
<svg xmlns="http://www.w3.org/2000/svg" viewBox="10 296 904 86" fill="currentColor">
  <path fill-rule="evenodd" clip-rule="evenodd" d="
    M 484.43 309.00 L 483.00 309.86 L 482.00 309.89 L 479.00 309.73 L 478.33 309.00 L 478.51 308.00 L 485.00 297.86 L 487.00 297.10 L 492.00 297.44 L 492.41 298.00 L 492.13 299.00 L 484.43 309.00 Z
    M 48.18 381.00 L 44.00 381.19 L 37.00 380.25 L 29.00 377.40 L 24.00 374.31 L 19.56 370.00 L 15.37 364.00 L 12.46 357.00 L 11.31 351.00 L 11.47 343.00 L 12.38 338.00 L 14.74 332.00 L 18.50 326.00 L 23.00 321.37 L 29.00 317.35 L 36.00 314.73 L 43.00 313.49 L 50.00 313.65 L 58.00 315.84 L 65.00 319.74 L 68.30 323.00 L 68.29 324.00 L 65.00 327.33 L 63.00 328.01 L 56.64 323.00 L 54.00 321.72 L 50.00 320.60 L 45.00 320.07 L 41.00 320.26 L 37.49 321.00 L 32.85 323.00 L 27.00 327.26 L 24.00 330.82 L 22.00 334.36 L 19.79 341.00 L 19.29 346.00 L 19.47 351.00 L 20.96 358.00 L 22.96 362.00 L 25.00 364.86 L 29.07 369.00 L 32.00 371.05 L 36.08 373.00 L 39.41 374.00 L 43.00 374.40 L 51.01 374.00 L 58.00 371.22 L 61.00 369.21 L 64.00 366.42 L 65.00 366.14 L 66.00 366.66 L 69.12 370.00 L 68.94 371.00 L 66.00 373.91 L 61.00 377.41 L 53.00 380.28 L 48.18 381.00 Z
    M 635.21 381.00 L 629.00 381.03 L 621.00 379.45 L 616.00 377.40 L 610.00 373.37 L 605.86 369.00 L 601.50 362.00 L 599.46 356.00 L 598.79 351.00 L 598.73 345.00 L 599.51 339.00 L 602.69 331.00 L 606.58 325.00 L 611.00 320.60 L 617.00 316.77 L 623.00 314.53 L 629.00 313.63 L 638.00 313.74 L 645.00 315.66 L 649.00 317.72 L 652.00 319.94 L 654.93 323.00 L 655.04 324.00 L 652.00 327.14 L 650.00 328.11 L 643.00 322.70 L 638.89 321.00 L 636.00 320.43 L 631.00 320.11 L 627.00 320.57 L 622.20 322.00 L 618.26 324.00 L 613.00 328.59 L 609.00 335.00 L 606.74 343.00 L 606.69 352.00 L 609.00 359.74 L 612.00 364.75 L 616.05 369.00 L 619.00 371.07 L 623.05 373.00 L 626.13 374.00 L 630.00 374.47 L 638.22 374.00 L 643.58 372.00 L 646.55 370.00 L 651.00 366.02 L 652.00 365.73 L 655.88 369.00 L 656.42 370.00 L 656.03 371.00 L 651.00 375.49 L 643.00 379.45 L 640.00 380.40 L 635.21 381.00 Z
    M 149.27 380.00 L 113.00 380.17 L 111.46 379.00 L 111.43 318.00 L 111.55 316.00 L 112.35 315.00 L 118.00 314.72 L 118.99 316.00 L 119.00 366.14 L 119.09 372.00 L 119.47 373.00 L 126.00 373.51 L 149.00 373.51 L 150.00 373.80 L 150.74 375.00 L 150.66 379.00 L 149.27 380.00 Z
    M 246.25 380.00 L 241.00 380.15 L 240.00 379.82 L 238.33 377.00 L 233.14 364.00 L 232.00 363.10 L 231.00 363.03 L 202.00 363.49 L 195.00 379.22 L 193.00 380.10 L 189.00 380.11 L 188.00 379.79 L 187.45 379.00 L 211.71 320.00 L 213.45 316.00 L 215.00 314.76 L 220.00 314.63 L 221.65 316.00 L 247.21 378.00 L 247.44 379.00 L 246.25 380.00 Z
    M 330.02 380.00 L 325.00 379.95 L 323.62 379.00 L 308.00 353.26 L 307.00 351.84 L 305.00 351.41 L 296.00 351.47 L 295.12 352.00 L 294.81 379.00 L 294.00 379.88 L 289.00 380.13 L 288.00 379.82 L 287.40 379.00 L 287.25 317.00 L 288.00 314.87 L 308.00 314.66 L 317.00 315.57 L 321.00 316.83 L 324.00 318.48 L 328.68 323.00 L 330.45 327.00 L 331.16 332.00 L 330.87 337.00 L 329.61 341.00 L 327.52 344.00 L 325.00 346.35 L 322.00 348.30 L 316.89 350.00 L 315.31 351.00 L 332.23 378.00 L 332.55 379.00 L 332.00 379.72 L 330.02 380.00 Z
    M 397.38 380.00 L 393.00 380.11 L 391.47 379.00 L 391.33 378.00 L 391.28 322.00 L 390.00 321.35 L 371.00 321.15 L 369.97 320.00 L 369.87 317.00 L 369.93 316.00 L 371.00 314.73 L 418.00 314.57 L 419.65 315.00 L 420.34 316.00 L 420.26 320.00 L 419.00 321.17 L 401.00 321.38 L 399.28 322.00 L 399.04 378.00 L 398.89 379.00 L 397.38 380.00 Z
    M 501.18 380.00 L 463.00 380.12 L 461.46 379.00 L 461.34 317.00 L 462.00 315.00 L 463.00 314.65 L 490.00 314.54 L 502.00 314.62 L 503.00 315.08 L 503.54 316.00 L 503.55 320.00 L 502.00 321.30 L 470.00 321.34 L 469.00 321.81 L 468.86 323.00 L 468.80 342.00 L 469.15 343.00 L 499.00 343.31 L 500.01 345.00 L 500.06 348.00 L 499.37 350.00 L 498.00 350.42 L 470.00 350.41 L 469.00 350.93 L 468.99 373.00 L 472.00 373.49 L 503.00 373.64 L 503.91 375.00 L 503.76 379.00 L 503.00 379.85 L 501.18 380.00 Z
    M 734.82 380.00 L 700.00 380.24 L 698.00 379.74 L 697.49 379.00 L 697.46 317.00 L 697.56 316.00 L 698.44 315.00 L 704.00 314.70 L 705.07 316.00 L 705.14 372.00 L 705.47 373.00 L 707.00 373.43 L 735.00 373.39 L 736.00 373.88 L 736.55 375.00 L 736.53 378.00 L 736.00 379.47 L 734.82 380.00 Z
    M 801.00 381.00 L 792.00 380.30 L 785.00 377.38 L 780.14 373.00 L 776.36 367.00 L 774.83 361.00 L 774.51 350.00 L 774.61 317.00 L 775.00 315.46 L 776.00 314.69 L 781.00 314.72 L 782.16 316.00 L 782.22 356.00 L 782.81 361.00 L 783.67 364.00 L 785.80 368.00 L 789.00 371.20 L 793.00 373.24 L 798.00 374.17 L 802.35 374.00 L 808.00 372.01 L 812.00 368.78 L 815.00 364.00 L 816.00 360.89 L 816.44 357.00 L 816.50 316.00 L 818.00 314.65 L 822.00 314.57 L 823.65 315.00 L 824.32 316.00 L 824.30 355.00 L 823.54 362.00 L 822.44 366.00 L 819.29 372.00 L 816.00 375.39 L 813.00 377.42 L 809.00 379.31 L 806.00 380.33 L 801.00 381.00 Z
    M 893.36 380.00 L 870.00 380.19 L 869.00 380.02 L 868.17 379.00 L 868.16 317.00 L 868.23 316.00 L 869.00 314.86 L 891.00 314.77 L 898.00 315.64 L 901.00 316.67 L 905.00 319.16 L 907.82 322.00 L 909.48 325.00 L 909.60 337.00 L 907.22 341.00 L 905.00 343.13 L 901.96 345.00 L 901.80 346.00 L 907.00 348.56 L 909.54 351.00 L 911.45 354.00 L 912.57 357.00 L 912.92 360.00 L 912.39 367.00 L 909.84 372.00 L 908.00 374.14 L 905.00 376.48 L 899.00 379.19 L 893.36 380.00 Z
    M 315.00 344.03 L 320.00 341.27 L 322.00 338.77 L 323.00 336.51 L 323.35 331.00 L 322.35 328.00 L 321.00 325.88 L 317.51 323.00 L 313.00 321.49 L 297.00 321.24 L 296.00 321.30 L 295.00 322.00 L 295.01 344.00 L 296.00 344.85 L 298.00 344.95 L 310.00 344.80 L 315.00 344.03 Z
    M 892.00 343.06 L 896.00 342.11 L 898.00 341.13 L 900.35 339.00 L 902.00 336.45 L 902.98 332.00 L 902.17 328.00 L 901.00 325.84 L 897.82 323.00 L 893.00 321.42 L 885.00 321.20 L 876.00 321.70 L 875.62 334.00 L 876.00 342.79 L 892.00 343.06 Z
    M 229.00 356.53 L 229.79 356.00 L 228.05 351.00 L 218.03 326.00 L 217.00 325.76 L 204.89 356.00 L 207.00 356.55 L 229.00 356.53 Z
    M 896.00 373.11 L 901.12 371.00 L 903.17 369.00 L 905.00 365.58 L 905.53 362.00 L 905.24 358.00 L 903.00 353.73 L 899.28 351.00 L 895.00 349.68 L 889.00 349.41 L 876.00 349.79 L 875.61 365.00 L 876.00 373.19 L 885.00 373.66 L 896.00 373.11 Z" />
</svg>
